<svg xmlns="http://www.w3.org/2000/svg" viewBox="0 0 96 128" width="96" height="128" shape-rendering="crispEdges" role="img" aria-label="魏玛像素站姿">
  <g id="legs">
    <rect x="41" y="80" width="7" height="35" fill="#f1ddcf" />
    <rect x="50" y="80" width="7" height="35" fill="#f1ddcf" />
    <rect x="43" y="80" width="2" height="35" fill="#dbc1b3" />
    <rect x="52" y="80" width="2" height="35" fill="#dbc1b3" />
    <rect x="40" y="113" width="10" height="5" fill="#382f30" />
    <rect x="49" y="113" width="10" height="5" fill="#382f30" />
  </g>
  <g id="shirt">
    <rect x="32" y="45" width="33" height="47" fill="#fff2e0" />
    <rect x="32" y="88" width="33" height="6" fill="#dccdb8" />
    <rect x="31" y="45" width="3" height="49" fill="#382f30" />
    <rect x="63" y="45" width="3" height="49" fill="#382f30" />
    <rect x="34" y="92" width="29" height="3" fill="#382f30" />
    <rect x="47" y="46" width="2" height="43" fill="#b8a997" />
    <rect x="50" y="46" width="2" height="43" fill="#b8a997" />
    <rect x="49" y="55" width="2" height="2" fill="#382f30" />
    <rect x="49" y="65" width="2" height="2" fill="#382f30" />
    <rect x="49" y="75" width="2" height="2" fill="#382f30" />
    <rect x="23" y="48" width="10" height="40" fill="#fff2e0" />
    <rect x="63" y="48" width="10" height="40" fill="#fff2e0" />
    <rect x="21" y="48" width="3" height="42" fill="#382f30" />
    <rect x="32" y="48" width="3" height="42" fill="#382f30" />
    <rect x="62" y="48" width="3" height="42" fill="#382f30" />
    <rect x="73" y="48" width="3" height="42" fill="#382f30" />
    <rect x="24" y="86" width="8" height="4" fill="#dccdb8" />
    <rect x="65" y="86" width="8" height="4" fill="#dccdb8" />
    <rect x="54" y="61" width="9" height="12" fill="#382f30" />
    <rect x="56" y="62" width="6" height="9" fill="#fff2e0" />
    <rect x="57" y="58" width="3" height="7" fill="#b2bab8" />
    <rect x="60" y="59" width="3" height="6" fill="#b2bab8" />
    <path d="M33 45 L43 54" stroke="#382f30" stroke-width="1" />
    <path d="M63 45 L53 54" stroke="#382f30" stroke-width="1" />
    <rect x="42" y="52" width="5" height="3" fill="#dccdb8" />
    <rect x="52" y="52" width="5" height="3" fill="#dccdb8" />
  </g>
  <g id="head">
    <rect x="43" y="39" width="10" height="10" fill="#f1ddcf" />
    <rect x="42" y="47" width="12" height="3" fill="#dbc1b3" />
    <rect x="32" y="17" width="32" height="25" fill="#f1ddcf" />
    <rect x="29" y="23" width="4" height="14" fill="#f1ddcf" />
    <rect x="63" y="23" width="4" height="14" fill="#f1ddcf" />
    <rect x="35" y="42" width="26" height="5" fill="#f1ddcf" />
    <rect x="39" y="47" width="18" height="3" fill="#dbc1b3" />
    <path d="M31 22 V39 L35 47 H60 L64 39 V22" fill="none" stroke="#382f30" stroke-width="1" />
  </g>
  <g id="hair">
    <rect x="27" y="10" width="40" height="13" fill="#16181b" />
    <rect x="25" y="18" width="45" height="9" fill="#16181b" />
    <rect x="25" y="27" width="7" height="9" fill="#16181b" />
    <rect x="63" y="26" width="8" height="10" fill="#16181b" />
    <rect x="31" y="7" width="12" height="5" fill="#16181b" />
    <rect x="45" y="6" width="13" height="5" fill="#16181b" />
    <rect x="58" y="9" width="9" height="6" fill="#16181b" />
    <rect x="28" y="14" width="5" height="19" fill="#16181b" />
    <rect x="36" y="13" width="5" height="16" fill="#16181b" />
    <rect x="50" y="12" width="5" height="15" fill="#16181b" />
    <rect x="60" y="14" width="5" height="18" fill="#16181b" />
    <rect x="36" y="11" width="8" height="2" fill="#25272b" />
    <rect x="51" y="10" width="7" height="2" fill="#25272b" />
    <rect x="30" y="23" width="6" height="2" fill="#25272b" />
    <rect x="58" y="23" width="5" height="2" fill="#25272b" />
  </g>
  <g id="face">
    <rect x="38" y="31" width="7" height="2" fill="#382f30" />
    <rect x="52" y="31" width="7" height="2" fill="#382f30" />
    <rect x="40" y="33" width="4" height="2" fill="#7a97a6" />
    <rect x="54" y="33" width="4" height="2" fill="#7a97a6" />
    <rect x="36" y="28" width="12" height="2" fill="#b18d50" />
    <rect x="36" y="38" width="12" height="2" fill="#b18d50" />
    <rect x="35" y="30" width="2" height="8" fill="#b18d50" />
    <rect x="47" y="30" width="2" height="8" fill="#b18d50" />
    <rect x="50" y="28" width="12" height="2" fill="#b18d50" />
    <rect x="50" y="38" width="12" height="2" fill="#b18d50" />
    <rect x="49" y="30" width="2" height="8" fill="#b18d50" />
    <rect x="61" y="30" width="2" height="8" fill="#b18d50" />
    <rect x="48" y="33" width="3" height="2" fill="#b18d50" />
    <path d="M62 39 L64 52" stroke="#b18d50" stroke-width="1" />
    <rect x="45" y="42" width="7" height="2" fill="#76534e" />
    <rect x="52" y="43" width="1" height="1" fill="#76534e" />
    <rect x="34" y="37" width="5" height="2" fill="#e1c6bc" opacity="0.7" />
    <rect x="58" y="37" width="4" height="2" fill="#e1c6bc" opacity="0.7" />
  </g>
</svg>
